<svg width="512" height="512" viewBox="0 0 512 512" fill="none" xmlns="http://www.w3.org/2000/svg">
<path d="M256.5 82L412.818 169V343L256.5 430L100.182 343V169L256.5 82Z" fill="white"/>
<path d="M256 256L389 179.5L422.5 180L455.5 373.5L256 510.5V256Z" fill="#E0E0E0"/>
<path d="M79.2975 153.981L256 51.9615L432.703 153.981V358.019L256 460.038L79.2975 358.019V153.981Z" stroke="url(#paint0_linear_401_2)" stroke-width="90"/>
<path d="M79.2975 153.981L256 51.9615L432.703 153.981V358.019L256 460.038L79.2975 358.019V153.981Z" stroke="url(#paint1_linear_401_2)" stroke-width="90"/>
<path d="M79.2975 153.981L256 51.9615L432.703 153.981V358.019L256 460.038L79.2975 358.019V153.981Z" stroke="url(#paint2_linear_401_2)" stroke-width="90"/>
<mask id="mask0_401_2" style="mask-type:alpha" maskUnits="userSpaceOnUse" x="34" y="0" width="444" height="512">
<path d="M79.2975 153.981L256 51.9615L432.703 153.981V358.019L256 460.038L79.2975 358.019V153.981Z" stroke="url(#paint3_linear_401_2)" stroke-width="90"/>
</mask>
<g mask="url(#mask0_401_2)">
<path d="M256 256L34 128L256 0L478 128L256 256Z" fill="white" style="mix-blend-mode:soft-light"/>
<path d="M256 512V256L34 128L33.5 384L256 512Z" fill="url(#paint4_linear_401_2)" fill-opacity="0.35" style="mix-blend-mode:soft-light"/>
</g>
<defs>
<linearGradient id="paint0_linear_401_2" x1="512" y1="0" x2="0" y2="512" gradientUnits="userSpaceOnUse">
<stop stop-color="#D357FF"/>
<stop offset="1" stop-color="#4433A1"/>
</linearGradient>
<linearGradient id="paint1_linear_401_2" x1="385" y1="-73" x2="93.5" y2="373.5" gradientUnits="userSpaceOnUse">
<stop stop-color="#00F0FF"/>
<stop offset="1" stop-color="#FF27E9" stop-opacity="0"/>
</linearGradient>
<linearGradient id="paint2_linear_401_2" x1="-20.5" y1="404" x2="144.5" y2="328" gradientUnits="userSpaceOnUse">
<stop stop-color="#FF00C7"/>
<stop offset="1" stop-color="#FF00C7" stop-opacity="0"/>
</linearGradient>
<linearGradient id="paint3_linear_401_2" x1="512" y1="0" x2="0" y2="512" gradientUnits="userSpaceOnUse">
<stop stop-color="#DD57FF"/>
<stop offset="1" stop-color="#2984D8"/>
</linearGradient>
<linearGradient id="paint4_linear_401_2" x1="267" y1="447" x2="103" y2="250" gradientUnits="userSpaceOnUse">
<stop/>
<stop offset="1" stop-opacity="0"/>
</linearGradient>
</defs>
</svg>